<?xml version="1.0" encoding="UTF-8" standalone="no"?>
<svg viewBox="0 0 409.04269 409.04269" xmlns="http://www.w3.org/2000/svg" xmlns:inkscape="http://www.inkscape.org/namespaces/inkscape" xmlns:xlink="http://www.w3.org/1999/xlink">
<defs>
<inkscape:path-effect/>
<clipPath>
<path d="m230,895.29725v211.34375h444.28125v-199.09375c-.65963.89686-1.35967,1.78441-2.1875,2.6875a12.85843,12.85843 0 0,1 -9.375,4.15625c-.0936.65982-.65625,3.41957-.65625,3.59375-.0112-.01.00067.019 0,.0312 .0112.0147.0405.0149.0625.0625a12.85843,12.85843 0 0,1 -6.28125,17.03125c-4.21056,1.95491-9.17992,3.875-15.6875,3.875-3.86313,0-8.84955-.52595-13.375-4.4375s-5.96875-9.94516-5.96875-14c0-2.64896.29496-4.95526.6875-7.21875-.28342.0203-.62769.0108-.90625.0312-4.34831.31982-7.38584.58028-10.5.6875a12.85843,12.85843 0 0,1 -2.53125,13.3125c-5.72825,6.21923-13.50204,10.71875-22.46875,10.71875-6.63275,0-11.58021-3.26388-15.15625-7.0625a12.85843,12.85843 0 0,1 -9.75,7.15625c-1.82405.26058-3.22914.25-4.15625.25-4.55329,0-9.04787-.7905-13.46875-3.46875-2.01823-1.22268-4.02743-3.20787-5.65625-5.5625-7.33048,5.40247-16.15166,8.90625-25.9375,8.90625-8.87147,0-17.67947-3.03324-23.9375-9.28125-3.92277-3.91649-6.47124-8.92031-7.9375-14.34375-.75886,2.61701-1.49107,5.23701-2.4375,7.96875-5.04262,14.53462-16.30679,26.24975-30.875,31.75a12.85843,12.85843 0 0,1 -1.40625.4375c-.0736.0184-1.1818.59375-4.25.59375-2.95391,0-7.43356-.96485-10.75-4.34375s-4.09375-7.65756-4.09375-10.1875a12.85843,12.85843 0 0,1 .125-1.8125c.10402-.72815.46628-1.54522.75-2.34375-4.26786,1.01236-8.63921,1.5625-13.03125,1.5625-8.40901,0-16.66761-1.77-23.3125-7.09375s-10.24698-13.91282-10.65625-22.34375c-.0396-.81685.004-1.6229 0-2.4375-2.27084,4.94382-4.67102,10.5539-7.25,17-.0168.0421-.0144.0829-.0312.125h-.0312c-1.19264,3.038-3.20997,7.10273-7.34375,10.15625-4.18481,3.09122-9.32102,4.0625-13.75,4.0625-3.61761,0-7.01546-.4886-11.03125-1.21875a12.85843,12.85843 0 0,1 -4.34385-1.65615c-3.24736,1.73679-6.90597,2.96875-11.65625,2.96875-5.3851,0-11.71091-1.85611-16.15625-6.34375-4.35529-4.39673-6.1865-10.19743-6.59375-15.625-.002-.0302.002-.0635 0-.0937-.006-.0819-.026-.16826-.0312-.25h.0312c-.33031-3.94712-.17653-8.7663.96875-14.9375-1.58249.0999-3.4679.12186-5.25.1875-1.91902,9.0157-2.94636,15.06933-3,16.59375 .19176.67141 1.03125,1.51124 1.03125,5.9375a12.85843,12.85843 0 0,1 -5.5,10.5625c-6.7695,4.70921-12.45371,4.96875-18.28125,4.96875-4.22118,0-9.42103-.49357-14.15625-4.625s-5.96875-10.31406-5.96875-14.25c0-4.41734.85788-7.912 1.5625-10.84375 .0131-.0582.0182-.12924.0312-.1875 .9485-4.22876 1.83502-8.65257 3.03125-13.4375a12.85843,12.85843 0 0,1 .0312-.15625c.006-.0232.0252-.0393.0312-.0625h-25.5zm95.75,6.0625c-.47609.23375-.44577.36855-.28125.25 .0451-.0325.21535-.199.28125-.25z"/>
</clipPath>
<linearGradient>
<stop offset="0" stop-color="#ff8700"/>
<stop offset="1" stop-color="#d33b00"/>
</linearGradient>
<linearGradient>
<stop offset="0" stop-color="#eb6a0f"/>
<stop offset="1" stop-color="#a11700"/>
</linearGradient>
<linearGradient gradientUnits="userSpaceOnUse" x1="333.35034" x2="348.50262" y1="268.36539" y2="267.86029">
<stop offset="0" stop-color="#ab2302"/>
<stop offset="1" stop-color="#ab2302" stop-opacity="0"/>
</linearGradient>
<linearGradient>
<stop offset="0" stop-color="#2994d1"/>
<stop offset="1" stop-color="#0d426c"/>
</linearGradient>
<linearGradient>
<stop offset="0"/>
<stop offset="1" stop-color="#5b5b5b"/>
</linearGradient>
<linearGradient gradientUnits="userSpaceOnUse" x1="-335.4134" x2="-268.3532" xlink:href="#linearGradient3935-9" y1="505.7598" y2="685.76354"/>
<linearGradient gradientUnits="userSpaceOnUse" x2="0" xlink:href="#linearGradient3050" y1="459.87651" y2="614.08824"/>
<linearGradient gradientUnits="userSpaceOnUse" x2="0" xlink:href="#linearGradient3050" y1="571.164" y2="725.37573"/>
<linearGradient gradientUnits="userSpaceOnUse" x1="330.70131" x2="397.76151" xlink:href="#linearGradient3935-9" y1="617.04729" y2="797.05103"/>
<linearGradient gradientUnits="userSpaceOnUse" x1="324.28574" x2="577.2334" xlink:href="#linearGradient4118-0" y1="755.21692" y2="971.13751"/>
<radialGradient cx="557.82336" cy="557.85718" gradientTransform="matrix(.91645,-.85781,1.21261,1.2955,-629.85512,313.66175)" gradientUnits="userSpaceOnUse" r="197.82341">
<stop offset="0" stop-color="#1274f4"/>
<stop offset="1" stop-color="#00132c"/>
</radialGradient>
<radialGradient cx="557.82336" cy="557.85718" gradientTransform="matrix(.91645,-.85781,1.21261,1.2955,-629.85512,313.66175)" gradientUnits="userSpaceOnUse" r="197.82341" xlink:href="#linearGradient4118-0"/>
</defs>
<g transform="translate(-245.49315,-532.839)">
<path d="m436.1996,533.31095c-112.51706,7.60985-197.84435,105.31621-190.23451,217.83327s105.31833,197.87553 217.83538,190.26569 197.87342-105.3495 190.26358-217.86656-105.34738-197.84224-217.86445-190.2324zm2.02436,29.93162c96.34082-6.5158 179.39267,65.98432 185.90847,162.32514 5.84153,86.37135-51.8518,162.06503-133.27511,181.50066 .35289-1.34175.63019-2.76034.87316-4.2248 2.15247-7.41313 3.45805-18.46954 2.66496-19.41157-2.16842-2.57549 8.7419-29.48345 13.93179-34.36217 6.87608-6.46395 10.11337-20.97263 8.17577-36.57255-1.43854-11.58193-.69041-17.60451 4.27601-34.49215 3.84503-13.07483 7.78893-22.39534 10.93622-25.85941 2.70809-2.98061 7.82762-11.26728 11.34666-18.40135 6.74626-13.67636 19.93086-28.48316 28.12175-31.56331 8.2079-3.08652 15.71444-15.65393 14.93855-25.03384-.91434-11.05336-4.04521-15.65268-9.07393-13.293-2.91844,1.36947-4.8997.85516-7.65371-2.01939-3.25413-3.3966-3.83136-3.23711-4.67169,1.31824-.52791,2.86164-2.4324,5.35212-4.23324,5.48566-2.54381.18858-2.38605-1.81515.74604-8.88309 2.21728-5.0036 3.96228-12.85831 3.89328-17.45876-.12225-8.14718-7.25498-26.91383-10.62624-27.90906-.9258-.27331-7.88487,5.03605-15.42943,11.75545-20.31255,18.09084-52.24022,40.98566-57.77351,41.43041-2.66215.21392-7.69783-.19994-11.18023-.90389-6.40491-1.29469-16.05565,3.06918-38.8739,17.53814-9.85817,6.251-15.77179,7.96556-29.73822,8.58877-10.73452.47899-20.62409,2.6465-25.73951,5.65601-7.60636,4.47496-8.16156,5.38906-6.74531,10.94887 .85076,3.33982 6.17033,10.66158 11.81239,16.27125l10.24335,10.20706-6.25157,9.91319c-3.4498,5.45847-7.27337,13.18137-8.45638,17.14094s-5.78037,11.11574-10.2307,15.91413c-8.58156,9.25269-24.82058,36.1316-30.02923,49.6708-1.29014,3.35359-14.48096,12.076-23.59841,16.47368-20.82846-26.59696-34.15817-59.54201-36.61532-95.87277-6.5158-96.34082 65.98643-179.36149 162.32724-185.87729z"/>
</g>
</svg>
